<mxfile host="app.diagrams.net" agent="Mozilla/5.0 (Windows NT 10.0; Win64; x64) AppleWebKit/537.36 (KHTML, like Gecko) Chrome/128.0.0.0 Safari/537.36" version="24.7.13">
  <diagram id="2XVK7RYDKxdhMDquu4st" name="C4 Component">
    <mxGraphModel dx="2585" dy="1030" grid="0" gridSize="10" guides="0" tooltips="1" connect="1" arrows="1" fold="1" page="1" pageScale="1" pageWidth="827" pageHeight="1169" math="0" shadow="0">
      <root>
        <mxCell id="AVTp8zRlv71y_wTY7c-L-0" />
        <mxCell id="AVTp8zRlv71y_wTY7c-L-1" parent="AVTp8zRlv71y_wTY7c-L-0" />
        <mxCell id="ES5Gq84RkO1n-74JwgUG-0" value="&lt;div style=&quot;text-align: left&quot;&gt;&lt;b&gt;Web Application&lt;/b&gt;&lt;/div&gt;&lt;div style=&quot;text-align: left&quot;&gt;&lt;b&gt;[Component]&lt;/b&gt;&lt;/div&gt;" style="rounded=1;whiteSpace=wrap;html=1;labelBackgroundColor=none;fillColor=#ffffff;align=left;arcSize=1;verticalAlign=bottom;points=[[0.25,0,0],[0.5,0,0],[0.75,0,0],[1,0.25,0],[1,0.5,0],[1,0.75,0],[0.75,1,0],[0.5,1,0],[0.25,1,0],[0,0.75,0],[0,0.5,0],[0,0.25,0]];strokeColor=#666666;fontColor=#666666;" parent="AVTp8zRlv71y_wTY7c-L-1" vertex="1">
          <mxGeometry x="34" y="190" width="740" height="550" as="geometry" />
        </mxCell>
        <mxCell id="ES5Gq84RkO1n-74JwgUG-1" style="edgeStyle=orthogonalEdgeStyle;rounded=0;orthogonalLoop=1;jettySize=auto;html=1;dashed=1;strokeColor=#666666;strokeWidth=2;fillColor=#f5f5f5;" parent="AVTp8zRlv71y_wTY7c-L-1" source="CS91i22oex75OEXL2tdX-0" target="5MoVeIhPErhMrRM2h9Du-1" edge="1">
          <mxGeometry relative="1" as="geometry">
            <mxPoint x="523" y="180" as="sourcePoint" />
            <mxPoint x="523" y="210" as="targetPoint" />
          </mxGeometry>
        </mxCell>
        <object placeholders="1" c4Name="Support Staff" c4Type="Person" c4Description="Monitors the production line" label="&lt;b&gt;%c4Name%&lt;/b&gt;&lt;div&gt;[%c4Type%]&lt;/div&gt;&lt;br&gt;&lt;div&gt;%c4Description%&lt;/div&gt;" id="CS91i22oex75OEXL2tdX-0">
          <mxCell style="html=1;dashed=0;whitespace=wrap;fillColor=#08427b;strokeColor=none;fontColor=#ffffff;shape=mxgraph.c4.person;align=center;metaEdit=1;points=[[0.5,0,0],[1,0.5,0],[1,0.75,0],[0.75,1,0],[0.5,1,0],[0.25,1,0],[0,0.75,0],[0,0.5,0]];metaData={&quot;c4Type&quot;:{&quot;editable&quot;:false}};" parent="AVTp8zRlv71y_wTY7c-L-1" vertex="1">
            <mxGeometry x="439" y="10" width="168" height="140" as="geometry" />
          </mxCell>
        </object>
        <object placeholders="1" c4Name="Sign-in controller" c4Type="Component" c4Technology="Keycloak" c4Description="Enforces access rights" label="&lt;b&gt;%c4Name%&lt;/b&gt;&lt;div&gt;[%c4Type%: %c4Technology%]&lt;/div&gt;&lt;br&gt;&lt;div&gt;%c4Description%&lt;/div&gt;" id="5MoVeIhPErhMrRM2h9Du-0">
          <mxCell style="rounded=1;whiteSpace=wrap;html=1;labelBackgroundColor=none;fillColor=#85BBF0;fontColor=#ffffff;align=center;arcSize=10;strokeColor=#78A8D8;metaEdit=1;metaData={&quot;c4Type&quot;:{&quot;editable&quot;:false}};points=[[0.25,0,0],[0.5,0,0],[0.75,0,0],[1,0.25,0],[1,0.5,0],[1,0.75,0],[0.75,1,0],[0.5,1,0],[0.25,1,0],[0,0.75,0],[0,0.5,0],[0,0.25,0]];" parent="AVTp8zRlv71y_wTY7c-L-1" vertex="1">
            <mxGeometry x="104" y="210" width="160" height="110.00000000000001" as="geometry" />
          </mxCell>
        </object>
        <object placeholders="1" c4Name="Web application" c4Type="Component" c4Technology="HTML5/JavaScript" c4Description="Status dashboard" label="&lt;b&gt;%c4Name%&lt;/b&gt;&lt;div&gt;[%c4Type%: %c4Technology%]&lt;/div&gt;&lt;br&gt;&lt;div&gt;%c4Description%&lt;/div&gt;" id="5MoVeIhPErhMrRM2h9Du-1">
          <mxCell style="rounded=1;whiteSpace=wrap;html=1;labelBackgroundColor=none;fillColor=#85BBF0;fontColor=#ffffff;align=center;arcSize=10;strokeColor=#78A8D8;metaEdit=1;metaData={&quot;c4Type&quot;:{&quot;editable&quot;:false}};points=[[0.25,0,0],[0.5,0,0],[0.75,0,0],[1,0.25,0],[1,0.5,0],[1,0.75,0],[0.75,1,0],[0.5,1,0],[0.25,1,0],[0,0.75,0],[0,0.5,0],[0,0.25,0]];" parent="AVTp8zRlv71y_wTY7c-L-1" vertex="1">
            <mxGeometry x="443" y="210" width="160" height="110.00000000000001" as="geometry" />
          </mxCell>
        </object>
        <object placeholders="1" c4Type="Relationship" c4Technology="HTTPS" c4Description="Sends requests" label="&lt;div style=&quot;text-align: left&quot;&gt;&lt;div style=&quot;text-align: center&quot;&gt;&lt;b&gt;%c4Description%&lt;/b&gt;&lt;/div&gt;&lt;div style=&quot;text-align: center&quot;&gt;[%c4Technology%]&lt;/div&gt;&lt;/div&gt;" id="5MoVeIhPErhMrRM2h9Du-2">
          <mxCell style="edgeStyle=none;rounded=0;html=1;jettySize=auto;orthogonalLoop=1;strokeColor=#707070;strokeWidth=2;fontColor=#707070;jumpStyle=none;dashed=1;metaEdit=1;metaData={&quot;c4Type&quot;:{&quot;editable&quot;:false}};" parent="AVTp8zRlv71y_wTY7c-L-1" source="5MoVeIhPErhMrRM2h9Du-1" target="5MoVeIhPErhMrRM2h9Du-0" edge="1">
            <mxGeometry width="160" relative="1" as="geometry">
              <mxPoint x="330" y="440" as="sourcePoint" />
              <mxPoint x="490" y="440" as="targetPoint" />
            </mxGeometry>
          </mxCell>
        </object>
        <object placeholders="1" c4Name="User Management" c4Type="Component" c4Technology="LDAP" c4Description="Creates users, assigns access rights" label="&lt;b&gt;%c4Name%&lt;/b&gt;&lt;div&gt;[%c4Type%: %c4Technology%]&lt;/div&gt;&lt;br&gt;&lt;div&gt;%c4Description%&lt;/div&gt;" id="5MoVeIhPErhMrRM2h9Du-3">
          <mxCell style="rounded=1;whiteSpace=wrap;html=1;labelBackgroundColor=none;fillColor=#85BBF0;fontColor=#ffffff;align=center;arcSize=10;strokeColor=#78A8D8;metaEdit=1;metaData={&quot;c4Type&quot;:{&quot;editable&quot;:false}};points=[[0.25,0,0],[0.5,0,0],[0.75,0,0],[1,0.25,0],[1,0.5,0],[1,0.75,0],[0.75,1,0],[0.5,1,0],[0.25,1,0],[0,0.75,0],[0,0.5,0],[0,0.25,0]];" parent="AVTp8zRlv71y_wTY7c-L-1" vertex="1">
            <mxGeometry x="104" y="380" width="160" height="110.00000000000001" as="geometry" />
          </mxCell>
        </object>
        <object placeholders="1" c4Type="Relationship" c4Technology="REST API" c4Description="Verifies access" label="&lt;div style=&quot;text-align: left&quot;&gt;&lt;div style=&quot;text-align: center&quot;&gt;&lt;b&gt;%c4Description%&lt;/b&gt;&lt;/div&gt;&lt;div style=&quot;text-align: center&quot;&gt;[%c4Technology%]&lt;/div&gt;&lt;/div&gt;" id="5MoVeIhPErhMrRM2h9Du-4">
          <mxCell style="edgeStyle=none;rounded=0;html=1;jettySize=auto;orthogonalLoop=1;strokeColor=#707070;strokeWidth=2;fontColor=#707070;jumpStyle=none;dashed=1;metaEdit=1;metaData={&quot;c4Type&quot;:{&quot;editable&quot;:false}};" parent="AVTp8zRlv71y_wTY7c-L-1" source="5MoVeIhPErhMrRM2h9Du-0" target="5MoVeIhPErhMrRM2h9Du-3" edge="1">
            <mxGeometry width="160" relative="1" as="geometry">
              <mxPoint x="330" y="490" as="sourcePoint" />
              <mxPoint x="490" y="490" as="targetPoint" />
            </mxGeometry>
          </mxCell>
        </object>
        <object placeholders="1" c4Type="Database" c4Technology="MySQL" c4Description="Dashboard access rights" label="%c4Type%&lt;div&gt;[Container:&amp;nbsp;%c4Technology%]&lt;/div&gt;&lt;br&gt;&lt;div&gt;%c4Description%&lt;/div&gt;" id="5MoVeIhPErhMrRM2h9Du-5">
          <mxCell style="shape=cylinder;whiteSpace=wrap;html=1;boundedLbl=1;rounded=0;labelBackgroundColor=none;fillColor=#438DD5;fontSize=12;fontColor=#ffffff;align=center;strokeColor=#3C7FC0;metaEdit=1;points=[[0.5,0,0],[1,0.25,0],[1,0.5,0],[1,0.75,0],[0.5,1,0],[0,0.75,0],[0,0.5,0],[0,0.25,0]];metaData={&quot;c4Type&quot;:{&quot;editable&quot;:false}};" parent="AVTp8zRlv71y_wTY7c-L-1" vertex="1">
            <mxGeometry x="104" y="550" width="160" height="140" as="geometry" />
          </mxCell>
        </object>
        <object placeholders="1" c4Type="Relationship" c4Technology="REST API" c4Description="Verifies, reads, writes" label="&lt;div style=&quot;text-align: left&quot;&gt;&lt;div style=&quot;text-align: center&quot;&gt;&lt;b&gt;%c4Description%&lt;/b&gt;&lt;/div&gt;&lt;div style=&quot;text-align: center&quot;&gt;[%c4Technology%]&lt;/div&gt;&lt;/div&gt;" id="5MoVeIhPErhMrRM2h9Du-6">
          <mxCell style="edgeStyle=none;rounded=0;html=1;jettySize=auto;orthogonalLoop=1;strokeColor=#707070;strokeWidth=2;fontColor=#707070;jumpStyle=none;dashed=1;metaEdit=1;metaData={&quot;c4Type&quot;:{&quot;editable&quot;:false}};" parent="AVTp8zRlv71y_wTY7c-L-1" source="5MoVeIhPErhMrRM2h9Du-3" target="5MoVeIhPErhMrRM2h9Du-5" edge="1">
            <mxGeometry width="160" relative="1" as="geometry">
              <mxPoint x="330" y="490" as="sourcePoint" />
              <mxPoint x="490" y="490" as="targetPoint" />
            </mxGeometry>
          </mxCell>
        </object>
        <object placeholders="1" c4Name="Dashboard Management" c4Type="Component" c4Technology="JSON" c4Description="Holds dashboard configuration" label="&lt;b&gt;%c4Name%&lt;/b&gt;&lt;div&gt;[%c4Type%: %c4Technology%]&lt;/div&gt;&lt;br&gt;&lt;div&gt;%c4Description%&lt;/div&gt;" id="5MoVeIhPErhMrRM2h9Du-7">
          <mxCell style="rounded=1;whiteSpace=wrap;html=1;labelBackgroundColor=none;fillColor=#85BBF0;fontColor=#ffffff;align=center;arcSize=10;strokeColor=#78A8D8;metaEdit=1;metaData={&quot;c4Type&quot;:{&quot;editable&quot;:false}};points=[[0.25,0,0],[0.5,0,0],[0.75,0,0],[1,0.25,0],[1,0.5,0],[1,0.75,0],[0.75,1,0],[0.5,1,0],[0.25,1,0],[0,0.75,0],[0,0.5,0],[0,0.25,0]];" parent="AVTp8zRlv71y_wTY7c-L-1" vertex="1">
            <mxGeometry x="294" y="450" width="160" height="110.00000000000001" as="geometry" />
          </mxCell>
        </object>
        <object placeholders="1" c4Type="Relationship" c4Technology="HTML" c4Description="Set up dashboards" label="&lt;div style=&quot;text-align: left&quot;&gt;&lt;div style=&quot;text-align: center&quot;&gt;&lt;b&gt;%c4Description%&lt;/b&gt;&lt;/div&gt;&lt;div style=&quot;text-align: center&quot;&gt;[%c4Technology%]&lt;/div&gt;&lt;/div&gt;" id="5MoVeIhPErhMrRM2h9Du-8">
          <mxCell style="edgeStyle=none;rounded=0;html=1;jettySize=auto;orthogonalLoop=1;strokeColor=#707070;strokeWidth=2;fontColor=#707070;jumpStyle=none;dashed=1;metaEdit=1;metaData={&quot;c4Type&quot;:{&quot;editable&quot;:false}};" parent="AVTp8zRlv71y_wTY7c-L-1" source="5MoVeIhPErhMrRM2h9Du-1" target="5MoVeIhPErhMrRM2h9Du-7" edge="1">
            <mxGeometry width="160" relative="1" as="geometry">
              <mxPoint x="330" y="490" as="sourcePoint" />
              <mxPoint x="490" y="490" as="targetPoint" />
            </mxGeometry>
          </mxCell>
        </object>
        <object placeholders="1" c4Name="Visualisation Dashboard" c4Type="Container" c4Technology="Graphics libraries" c4Description="" label="&lt;b&gt;%c4Name%&lt;/b&gt;&lt;div&gt;[%c4Type%: %c4Technology%]&lt;/div&gt;&lt;br&gt;&lt;div&gt;%c4Description%&lt;/div&gt;" id="5MoVeIhPErhMrRM2h9Du-10">
          <mxCell style="rounded=1;whiteSpace=wrap;html=1;labelBackgroundColor=none;fillColor=#438DD5;fontColor=#ffffff;align=center;arcSize=10;strokeColor=#3C7FC0;metaEdit=1;metaData={&quot;c4Type&quot;:{&quot;editable&quot;:false}};points=[[0.25,0,0],[0.5,0,0],[0.75,0,0],[1,0.25,0],[1,0.5,0],[1,0.75,0],[0.75,1,0],[0.5,1,0],[0.25,1,0],[0,0.75,0],[0,0.5,0],[0,0.25,0]];" parent="AVTp8zRlv71y_wTY7c-L-1" vertex="1">
            <mxGeometry x="294" y="760" width="160" height="110.00000000000001" as="geometry" />
          </mxCell>
        </object>
        <object placeholders="1" c4Type="Relationship" c4Technology="JSON" c4Description="Makes requests to" label="&lt;div style=&quot;text-align: left&quot;&gt;&lt;div style=&quot;text-align: center&quot;&gt;&lt;b&gt;%c4Description%&lt;/b&gt;&lt;/div&gt;&lt;div style=&quot;text-align: center&quot;&gt;[%c4Technology%]&lt;/div&gt;&lt;/div&gt;" id="5MoVeIhPErhMrRM2h9Du-11">
          <mxCell style="edgeStyle=none;rounded=0;html=1;jettySize=auto;orthogonalLoop=1;strokeColor=#707070;strokeWidth=2;fontColor=#707070;jumpStyle=none;dashed=1;metaEdit=1;metaData={&quot;c4Type&quot;:{&quot;editable&quot;:false}};" parent="AVTp8zRlv71y_wTY7c-L-1" source="5MoVeIhPErhMrRM2h9Du-7" target="5MoVeIhPErhMrRM2h9Du-10" edge="1">
            <mxGeometry width="160" relative="1" as="geometry">
              <mxPoint x="330" y="830" as="sourcePoint" />
              <mxPoint x="490" y="830" as="targetPoint" />
            </mxGeometry>
          </mxCell>
        </object>
        <object placeholders="1" c4Type="Relationship" c4Technology="HTTPS" c4Description="Authenticates" label="&lt;div style=&quot;text-align: left&quot;&gt;&lt;div style=&quot;text-align: center&quot;&gt;&lt;b&gt;%c4Description%&lt;/b&gt;&lt;/div&gt;&lt;div style=&quot;text-align: center&quot;&gt;[%c4Technology%]&lt;/div&gt;&lt;/div&gt;" id="5MoVeIhPErhMrRM2h9Du-12">
          <mxCell style="edgeStyle=none;rounded=0;html=1;jettySize=auto;orthogonalLoop=1;strokeColor=#707070;strokeWidth=2;fontColor=#707070;jumpStyle=none;dashed=1;metaEdit=1;metaData={&quot;c4Type&quot;:{&quot;editable&quot;:false}};" parent="AVTp8zRlv71y_wTY7c-L-1" source="5MoVeIhPErhMrRM2h9Du-5" target="5MoVeIhPErhMrRM2h9Du-10" edge="1">
            <mxGeometry width="160" relative="1" as="geometry">
              <mxPoint x="330" y="830" as="sourcePoint" />
              <mxPoint x="490" y="830" as="targetPoint" />
            </mxGeometry>
          </mxCell>
        </object>
        <object placeholders="1" c4Name="Data Source Management" c4Type="Component" c4Technology="XML" c4Description="Stores connection parameters" label="&lt;b&gt;%c4Name%&lt;/b&gt;&lt;div&gt;[%c4Type%: %c4Technology%]&lt;/div&gt;&lt;br&gt;&lt;div&gt;%c4Description%&lt;/div&gt;" link="data:page/id,S9xD85C3ral9A_xj9ERV" id="5MoVeIhPErhMrRM2h9Du-13">
          <mxCell style="rounded=1;whiteSpace=wrap;html=1;labelBackgroundColor=none;fillColor=#85BBF0;fontColor=#ffffff;align=center;arcSize=10;strokeColor=#78A8D8;metaEdit=1;metaData={&quot;c4Type&quot;:{&quot;editable&quot;:false}};points=[[0.25,0,0],[0.5,0,0],[0.75,0,0],[1,0.25,0],[1,0.5,0],[1,0.75,0],[0.75,1,0],[0.5,1,0],[0.25,1,0],[0,0.75,0],[0,0.5,0],[0,0.25,0]];" parent="AVTp8zRlv71y_wTY7c-L-1" vertex="1">
            <mxGeometry x="534" y="450" width="160" height="110.00000000000001" as="geometry" />
          </mxCell>
        </object>
        <object placeholders="1" c4Type="Relationship" c4Technology="HTML" c4Description="Set up parameters" label="&lt;div style=&quot;text-align: left&quot;&gt;&lt;div style=&quot;text-align: center&quot;&gt;&lt;b&gt;%c4Description%&lt;/b&gt;&lt;/div&gt;&lt;div style=&quot;text-align: center&quot;&gt;[%c4Technology%]&lt;/div&gt;&lt;/div&gt;" id="5MoVeIhPErhMrRM2h9Du-14">
          <mxCell style="edgeStyle=none;rounded=0;html=1;jettySize=auto;orthogonalLoop=1;strokeColor=#707070;strokeWidth=2;fontColor=#707070;jumpStyle=none;dashed=1;metaEdit=1;metaData={&quot;c4Type&quot;:{&quot;editable&quot;:false}};" parent="AVTp8zRlv71y_wTY7c-L-1" source="5MoVeIhPErhMrRM2h9Du-1" target="5MoVeIhPErhMrRM2h9Du-13" edge="1">
            <mxGeometry width="160" relative="1" as="geometry">
              <mxPoint x="330" y="610" as="sourcePoint" />
              <mxPoint x="490" y="610" as="targetPoint" />
            </mxGeometry>
          </mxCell>
        </object>
        <object placeholders="1" c4Name="API Servive" c4Type="Container" c4Technology="Java/Python" c4Description="" label="&lt;b&gt;%c4Name%&lt;/b&gt;&lt;div&gt;[%c4Type%: %c4Technology%]&lt;/div&gt;&lt;br&gt;&lt;div&gt;%c4Description%&lt;/div&gt;" id="5MoVeIhPErhMrRM2h9Du-16">
          <mxCell style="rounded=1;whiteSpace=wrap;html=1;labelBackgroundColor=none;fillColor=#438DD5;fontColor=#ffffff;align=center;arcSize=10;strokeColor=#3C7FC0;metaEdit=1;metaData={&quot;c4Type&quot;:{&quot;editable&quot;:false}};points=[[0.25,0,0],[0.5,0,0],[0.75,0,0],[1,0.25,0],[1,0.5,0],[1,0.75,0],[0.75,1,0],[0.5,1,0],[0.25,1,0],[0,0.75,0],[0,0.5,0],[0,0.25,0]];" parent="AVTp8zRlv71y_wTY7c-L-1" vertex="1">
            <mxGeometry x="534" y="760" width="160" height="110.00000000000001" as="geometry" />
          </mxCell>
        </object>
        <object placeholders="1" c4Type="Relationship" c4Technology="JSON" c4Description="Makes requests to" label="&lt;div style=&quot;text-align: left&quot;&gt;&lt;div style=&quot;text-align: center&quot;&gt;&lt;b&gt;%c4Description%&lt;/b&gt;&lt;/div&gt;&lt;div style=&quot;text-align: center&quot;&gt;[%c4Technology%]&lt;/div&gt;&lt;/div&gt;" id="5MoVeIhPErhMrRM2h9Du-17">
          <mxCell style="edgeStyle=none;rounded=0;html=1;jettySize=auto;orthogonalLoop=1;strokeColor=#707070;strokeWidth=2;fontColor=#707070;jumpStyle=none;dashed=1;metaEdit=1;metaData={&quot;c4Type&quot;:{&quot;editable&quot;:false}};" parent="AVTp8zRlv71y_wTY7c-L-1" source="5MoVeIhPErhMrRM2h9Du-13" target="5MoVeIhPErhMrRM2h9Du-16" edge="1">
            <mxGeometry width="160" relative="1" as="geometry">
              <mxPoint x="384" y="570" as="sourcePoint" />
              <mxPoint x="384" y="770" as="targetPoint" />
            </mxGeometry>
          </mxCell>
        </object>
        <object placeholders="1" c4Type="Relationship" c4Technology="JSON" c4Description="Sends data to" label="&lt;div style=&quot;text-align: left&quot;&gt;&lt;div style=&quot;text-align: center&quot;&gt;&lt;b&gt;%c4Description%&lt;/b&gt;&lt;/div&gt;&lt;div style=&quot;text-align: center&quot;&gt;[%c4Technology%]&lt;/div&gt;&lt;/div&gt;" id="5MoVeIhPErhMrRM2h9Du-18">
          <mxCell style="edgeStyle=none;rounded=0;html=1;jettySize=auto;orthogonalLoop=1;strokeColor=#707070;strokeWidth=2;fontColor=#707070;jumpStyle=none;dashed=1;metaEdit=1;metaData={&quot;c4Type&quot;:{&quot;editable&quot;:false}};" parent="AVTp8zRlv71y_wTY7c-L-1" source="5MoVeIhPErhMrRM2h9Du-16" target="5MoVeIhPErhMrRM2h9Du-10" edge="1">
            <mxGeometry width="160" relative="1" as="geometry">
              <mxPoint x="330" y="610" as="sourcePoint" />
              <mxPoint x="490" y="610" as="targetPoint" />
              <Array as="points" />
            </mxGeometry>
          </mxCell>
        </object>
        <object placeholders="1" c4Type="Relationship" c4Technology="HTML" c4Description="Sends data to" label="&lt;div style=&quot;text-align: left&quot;&gt;&lt;div style=&quot;text-align: center&quot;&gt;&lt;b&gt;%c4Description%&lt;/b&gt;&lt;/div&gt;&lt;div style=&quot;text-align: center&quot;&gt;[%c4Technology%]&lt;/div&gt;&lt;/div&gt;" id="5MoVeIhPErhMrRM2h9Du-19">
          <mxCell style="edgeStyle=none;rounded=0;html=1;jettySize=auto;orthogonalLoop=1;strokeColor=#707070;strokeWidth=2;fontColor=#707070;jumpStyle=none;dashed=1;metaEdit=1;metaData={&quot;c4Type&quot;:{&quot;editable&quot;:false}};" parent="AVTp8zRlv71y_wTY7c-L-1" source="5MoVeIhPErhMrRM2h9Du-10" target="5MoVeIhPErhMrRM2h9Du-1" edge="1">
            <mxGeometry width="160" relative="1" as="geometry">
              <mxPoint x="330" y="610" as="sourcePoint" />
              <mxPoint x="490" y="610" as="targetPoint" />
              <Array as="points">
                <mxPoint x="374" y="890" />
                <mxPoint x="790" y="890" />
                <mxPoint x="790" y="550" />
                <mxPoint x="790" y="265" />
              </Array>
            </mxGeometry>
          </mxCell>
        </object>
      </root>
    </mxGraphModel>
  </diagram>
</mxfile>
